HIERARCHY
ROOT root
{
	OFFSET 0.000000 0.000000 0.000000
	CHANNELS 6 Xposition Yposition Zposition Zrotation Yrotation Xrotation
	JOINT lhip
	{
		OFFSET 0.058581 -0.082280 -0.017664
		CHANNELS 3 Zrotation Yrotation Xrotation
		JOINT lknee
		{
			OFFSET 0.043451 -0.386469 0.008037
			CHANNELS 3 Zrotation Yrotation Xrotation
			JOINT lankle
			{
				OFFSET -0.014790 -0.426874 -0.037428
				CHANNELS 3 Zrotation Yrotation Xrotation
				JOINT ltoe
				{
					OFFSET 0.041054 -0.060286 0.122042
					CHANNELS 3 Zrotation Yrotation Xrotation
					End Site
					{
						OFFSET 0.000000 0.000000 0.000000
					}
				}
			}
		}
	}
	JOINT rhip
	{
		OFFSET -0.060310 -0.090513 -0.013543
		CHANNELS 3 Zrotation Yrotation Xrotation
		JOINT rknee
		{
			OFFSET -0.043257 -0.383688 -0.004843
			CHANNELS 3 Zrotation Yrotation Xrotation
			JOINT rankle
			{
				OFFSET 0.019056 -0.420046 -0.034562
				CHANNELS 3 Zrotation Yrotation Xrotation
				JOINT rtoe
				{
					OFFSET -0.034840 -0.062106 0.130323
					CHANNELS 3 Zrotation Yrotation Xrotation
					End Site
					{
						OFFSET 0.000000 0.000000 0.000000
					}
				}
			}
		}
	}
	JOINT lowerback
	{
		OFFSET 0.004439 0.124404 -0.038385
		CHANNELS 3 Zrotation Yrotation Xrotation
		JOINT upperback
		{
			OFFSET 0.004488 0.137956 0.026820
			CHANNELS 3 Zrotation Yrotation Xrotation
			JOINT chest
			{
				OFFSET -0.002265 0.056032 0.002855
				CHANNELS 3 Zrotation Yrotation Xrotation
				JOINT lowerneck
				{
					OFFSET -0.013390 0.211636 -0.033468
					CHANNELS 3 Zrotation Yrotation Xrotation
					JOINT upperneck
					{
						OFFSET 0.010113 0.088937 0.050410
						CHANNELS 3 Zrotation Yrotation Xrotation
						End Site
						{
							OFFSET 0.000000 0.000000 0.000000
						}
					}
				}
				JOINT lclavicle
				{
					OFFSET 0.071702 0.114000 -0.018898
					CHANNELS 3 Zrotation Yrotation Xrotation
					JOINT lshoulder
					{
						OFFSET 0.122921 0.045205 -0.019046
						CHANNELS 3 Zrotation Yrotation Xrotation
						JOINT lelbow
						{
							OFFSET 0.255332 -0.015649 -0.022946
							CHANNELS 3 Zrotation Yrotation Xrotation
							JOINT lwrist
							{
								OFFSET 0.265709 0.012698 -0.007375
								CHANNELS 3 Zrotation Yrotation Xrotation
								End Site
								{
									OFFSET 0.000000 0.000000 0.000000
								}
							}
						}
					}
				}
				JOINT rclavicle
				{
					OFFSET -0.082954 0.112472 -0.023707
					CHANNELS 3 Zrotation Yrotation Xrotation
					JOINT rshoulder
					{
						OFFSET -0.113228 0.046853 -0.008472
						CHANNELS 3 Zrotation Yrotation Xrotation
						JOINT relbow
						{
							OFFSET -0.260127 -0.014369 -0.031269
							CHANNELS 3 Zrotation Yrotation Xrotation
							JOINT rwrist
							{
								OFFSET -0.269108 0.006794 -0.006027
								CHANNELS 3 Zrotation Yrotation Xrotation
								End Site
								{
									OFFSET 0.000000 0.000000 0.000000
								}
							}
						}
					}
				}
			}
		}
	}
}
MOTION
Frames: 17
Frame Time: 0.033333
-0.382792 0.136152 0.970871 104.515041 4.458214 86.274422 18.338380 -0.224130 6.064943 -12.964367 -30.964440 36.122891 -11.334775 8.376044 -17.542247 0.000000 -0.000000 0.000000 4.796417 -1.261417 -26.240063 2.582281 -5.866703 26.239385 6.567493 -22.450370 -9.479637 0.000000 -0.000000 0.000000 -8.619615 -5.050797 25.406349 -7.678652 -4.943657 -8.118469 -2.672184 -5.614549 4.767239 5.781764 -6.791804 4.670302 11.844882 1.077765 0.931134 -1.007523 6.882631 -11.352286 -12.547424 -2.670713 -11.691292 13.161187 -15.157749 -1.965751 1.023791 -3.957525 13.919860 -14.581151 -13.558406 -19.054650 4.727901 -3.856182 -15.020458 -16.190383 16.538368 -8.792957 -19.778801 6.916472 15.135143 
-0.360855 0.125949 0.971184 105.053373 4.170491 86.387214 18.300611 -0.851202 5.928104 -13.472976 -31.392886 38.010234 -12.219980 8.548902 -14.469999 0.000000 -0.000000 0.000000 5.165438 -1.114128 -26.072585 2.722100 -6.257747 28.218421 5.975193 -22.508598 -11.345645 0.000000 -0.000000 0.000000 -8.731466 -5.049179 25.528760 -7.928963 -5.047215 -7.849844 -3.002554 -5.802762 4.650497 5.915582 -6.748672 4.652451 11.953481 0.624737 1.358192 -1.416050 6.429173 -11.466654 -12.661521 -2.933202 -11.181511 13.382691 -15.438391 -2.291124 1.002628 -3.846024 13.834547 -14.668753 -13.344982 -19.187904 4.568969 -4.171906 -14.874301 -16.031923 16.740831 -8.414540 -19.949360 7.026135 14.869484 
-0.341011 0.119249 0.971948 105.305426 3.758652 86.580942 18.154334 -1.150895 6.089015 -13.606291 -31.510997 38.674752 -12.745476 9.024085 -11.696242 0.000000 -0.000000 0.000000 5.056725 -1.031389 -25.825803 2.924263 -6.923724 29.803980 5.762367 -21.975765 -12.883227 0.000000 -0.000000 0.000000 -8.515815 -5.257003 25.700546 -8.070666 -5.091034 -7.693141 -3.248395 -5.848578 4.464660 5.750386 -6.585028 4.738824 11.832975 0.374414 1.407959 -1.561104 5.989058 -11.517431 -12.753836 -2.974470 -10.785135 13.685839 -15.796109 -2.587089 1.076251 -3.665326 13.846386 -14.672928 -12.967047 -19.191007 4.676560 -4.337573 -14.971205 -15.970708 16.888881 -8.286689 -20.032648 6.826845 14.693934 
-0.323592 0.115203 0.972822 105.335481 3.171836 87.030923 17.974898 -0.914319 6.078831 -13.775027 -31.297654 38.892084 -12.747287 9.341539 -9.235516 0.000000 -0.000000 0.000000 4.729828 -1.273775 -25.743053 3.207893 -7.171261 30.947478 5.586368 -21.274138 -14.145021 0.000000 -0.000000 0.000000 -8.210050 -5.403825 25.481006 -7.943619 -5.127488 -7.481315 -3.326874 -5.887064 4.420302 5.588358 -6.323392 4.548593 11.467634 0.096536 1.399714 -1.481390 5.763116 -11.497144 -12.725614 -3.019644 -10.704883 13.829659 -16.002034 -2.686947 1.224939 -3.411639 13.685912 -14.586294 -12.711358 -19.100321 4.903840 -4.115265 -15.061639 -15.875323 16.941792 -8.090813 -19.985594 6.775993 14.287126 
-0.308402 0.113890 0.973995 105.062358 2.496627 87.507105 17.540223 -0.268622 6.149960 -13.837960 -31.123742 38.932390 -12.698330 9.581425 -7.060153 0.000000 -0.000000 0.000000 4.331705 -1.715624 -25.690843 3.403454 -7.023101 31.857792 5.484146 -20.452044 -15.171284 0.000000 -0.000000 0.000000 -7.675026 -5.397831 25.329221 -7.653085 -5.051162 -7.444746 -3.271952 -5.881957 4.444447 5.555263 -6.026744 4.061245 11.064501 -0.319783 1.432807 -1.230374 5.496796 -11.587694 -12.472275 -2.952957 -10.738879 13.855376 -16.016455 -2.710839 1.291288 -3.458781 13.835740 -14.387911 -12.400665 -19.104406 5.004366 -3.986729 -15.202798 -15.825202 16.983540 -8.154052 -19.952681 6.749432 14.380285 
-0.294534 0.115522 0.975040 104.578846 1.856310 87.956383 16.814977 0.307114 6.446279 -13.649988 -30.955789 38.655958 -12.740045 10.101861 -4.587063 0.000000 -0.000000 0.000000 3.810089 -2.092788 -25.645272 3.492115 -6.908388 32.672788 5.291348 -19.600067 -15.956369 0.000000 -0.000000 0.000000 -6.787561 -5.511287 25.149127 -7.290529 -4.869848 -7.408215 -3.128613 -5.717201 4.461858 5.485304 -5.762581 3.642141 10.613534 -0.562804 1.067826 -0.967988 5.298918 -11.783470 -11.954772 -2.623790 -10.860964 13.782785 -16.195765 -3.081868 1.647352 -3.388540 14.193576 -14.164491 -11.983111 -19.120638 4.968662 -3.867439 -15.477208 -15.719104 16.909341 -8.586965 -20.292753 6.689630 14.733787 
-0.281560 0.119566 0.975848 104.004802 1.251196 88.456989 15.932875 0.714431 6.705918 -13.434872 -30.564202 38.302479 -12.607219 10.808540 -2.420434 0.000000 -0.000000 0.000000 3.199353 -2.344968 -25.560982 3.593252 -6.702126 33.197512 4.997931 -19.117489 -16.547821 0.000000 -0.000000 0.000000 -5.604841 -5.706052 24.734317 -6.791686 -4.603423 -7.242785 -2.928212 -5.495740 4.525668 5.155374 -5.704849 3.268846 9.977921 -0.642576 0.458593 -0.625489 5.316684 -11.962519 -11.568519 -2.306788 -11.111841 13.766946 -16.471759 -3.713267 2.009410 -2.817876 13.817617 -13.953616 -11.681129 -19.089240 4.942426 -3.699825 -15.654173 -15.656448 17.013528 -8.822500 -20.333584 6.559829 15.139529 
-0.269447 0.125471 0.976708 103.183288 0.631629 88.939972 14.894346 1.255296 7.044077 -13.031996 -30.028463 37.782021 -12.390474 11.523018 -0.623919 0.000000 -0.000000 0.000000 2.657210 -2.603475 -25.472371 3.547265 -6.236088 33.534378 4.620546 -18.923002 -16.995358 0.000000 -0.000000 0.000000 -4.279872 -5.842866 24.353753 -6.279599 -4.171076 -7.271108 -2.686170 -5.254146 4.665746 4.713832 -5.712238 2.830946 9.034628 -0.861183 0.136357 -0.198115 5.385772 -12.124852 -11.140402 -1.941265 -11.428262 13.674269 -16.508616 -4.048985 2.170128 -2.680787 13.760221 -13.723830 -11.379221 -19.106566 4.872115 -3.508026 -15.844892 -15.635180 17.046236 -9.291294 -20.384100 6.707653 15.528779 
-0.257760 0.132417 0.977823 102.257469 -0.037894 89.376867 13.717801 1.973562 7.486176 -12.500255 -29.581925 37.114216 -12.027221 12.322743 1.307136 0.000000 -0.000000 0.000000 2.216713 -2.853511 -25.344507 3.349403 -5.422175 33.704421 4.041297 -19.199962 -17.337079 0.000000 -0.000000 0.000000 -3.061704 -5.948743 24.106482 -5.764595 -3.673940 -7.521773 -2.352200 -4.942495 4.838439 4.014882 -5.817859 2.456569 7.974552 -1.113896 -0.005075 0.307724 5.509217 -12.299748 -10.619906 -1.595359 -11.856651 13.556429 -16.552500 -4.217101 2.470718 -2.581850 13.976227 -13.455412 -11.079262 -19.183685 4.861926 -3.304919 -16.026580 -15.584581 17.020452 -9.684204 -20.587758 6.740128 16.469569 
-0.246127 0.139647 0.978968 101.489065 -0.700270 89.788973 12.478546 2.462064 7.999523 -11.900630 -29.146661 36.243626 -11.757451 13.276217 3.391526 0.000000 -0.000000 0.000000 1.763518 -2.725224 -25.126708 2.930456 -4.682169 33.835841 3.492585 -19.545622 -17.858779 0.000000 -0.000000 0.000000 -1.954118 -6.085909 23.868486 -5.170226 -3.206662 -7.762435 -2.037512 -4.635084 4.972366 3.330447 -5.700112 2.055551 6.809141 -1.642843 0.062729 0.904607 5.709686 -12.486923 -10.063024 -1.457313 -12.186821 13.576791 -16.551179 -4.377497 2.600023 -2.785772 14.053853 -13.031300 -10.823934 -19.311708 4.855780 -3.021607 -15.980109 -15.587808 16.849987 -10.066364 -20.607421 6.744064 16.830930 
-0.234365 0.146916 0.979755 101.063430 -1.277258 90.231113 11.294009 2.572102 8.379238 -11.473648 -28.806004 35.597818 -11.731307 14.070284 5.134309 0.000000 -0.000000 0.000000 1.098753 -2.415072 -24.853980 2.619956 -4.345909 34.067425 3.205008 -19.564649 -18.567378 0.000000 -0.000000 0.000000 -0.794399 -6.288642 23.437437 -4.498561 -2.878199 -7.790127 -1.772354 -4.371350 4.991698 2.667100 -5.492709 1.808289 5.666325 -2.098938 -0.147139 1.537709 5.849936 -12.572188 -9.554588 -1.336091 -12.353603 13.712568 -16.740422 -4.641263 2.622026 -3.000464 14.118181 -12.534716 -10.583559 -19.374948 4.804874 -2.858843 -15.964124 -15.526041 16.779368 -10.562443 -20.529490 6.902172 16.735856 
-0.222458 0.154391 0.979849 100.900438 -1.717115 90.682687 10.239746 2.527545 8.676432 -11.228882 -28.725413 35.194423 -11.596949 14.750908 6.472984 0.000000 -0.000000 0.000000 0.308485 -2.475031 -24.720858 2.621599 -4.253267 34.545359 3.030959 -19.434679 -19.146633 0.000000 -0.000000 0.000000 0.583445 -6.442732 22.808590 -3.788489 -2.615101 -7.712846 -1.537181 -4.229866 4.970199 1.935688 -5.319284 1.586187 4.448720 -2.511639 -0.342965 2.157883 5.866220 -12.601649 -9.268697 -1.323822 -12.509086 13.853803 -17.013872 -4.858595 2.592871 -2.934194 14.069775 -12.115285 -10.400591 -19.396796 4.694862 -2.710318 -16.106736 -15.526059 16.580133 -10.962759 -20.623305 6.967495 17.008287 
-0.210191 0.162083 0.979336 100.654059 -1.985830 91.090292 9.360794 2.669678 9.186828 -10.878462 -28.907267 34.700878 -11.425497 15.267484 7.383695 0.000000 -0.000000 0.000000 -0.353442 -2.810064 -24.544258 2.722978 -4.179951 35.090836 2.967517 -19.027816 -19.816756 0.000000 -0.000000 0.000000 2.087621 -6.524621 22.168061 -3.121700 -2.206854 -7.677973 -1.261025 -4.093585 4.905987 1.217597 -5.220239 1.398004 3.206780 -2.906243 -0.554074 2.673566 5.816873 -12.644461 -9.134109 -1.381474 -12.700858 13.861942 -17.351217 -4.826476 2.494839 -2.885259 14.203776 -11.730951 -10.212770 -19.423403 4.420110 -2.777335 -16.415448 -15.376629 16.500286 -11.222391 -20.773897 7.133994 17.697517 
-0.197394 0.169492 0.978283 100.222554 -2.137066 91.489162 8.590847 2.837380 9.832655 -10.463985 -29.025807 34.164761 -11.288585 15.709222 8.062409 0.000000 -0.000000 0.000000 -0.895698 -3.053642 -24.302732 2.897589 -4.084837 35.598990 2.864414 -18.588454 -20.592742 0.000000 -0.000000 0.000000 3.448353 -6.523592 21.456510 -2.419575 -1.769899 -7.613001 -0.914795 -3.955349 4.776088 0.558491 -5.054436 1.308700 1.978299 -3.299553 -0.734599 3.115933 5.809205 -12.608455 -9.116555 -1.335487 -12.887580 13.965826 -17.666155 -4.911146 2.413929 -2.848037 14.303267 -11.287124 -9.943335 -19.402596 4.225129 -2.696976 -16.697666 -15.292191 16.461747 -11.450609 -21.053012 7.434339 18.244809 
-0.184155 0.176300 0.976921 99.678371 -2.148621 91.892489 7.928590 2.819992 10.401232 -10.156292 -28.904401 33.871971 -11.201283 16.161374 8.615402 0.000000 -0.000000 0.000000 -1.400673 -3.036162 -23.994897 3.137541 -4.236841 36.061621 2.806287 -18.057961 -21.384765 0.000000 -0.000000 0.000000 4.605919 -6.519050 20.706127 -1.625707 -1.392823 -7.474012 -0.498170 -3.756423 4.503203 -0.120101 -4.776734 1.409286 0.666072 -3.652923 -0.953549 3.468547 5.853453 -12.567535 -8.997485 -1.214246 -13.084148 14.129584 -17.940552 -5.033165 2.180415 -2.850752 14.463009 -10.685960 -9.508365 -19.196841 4.035865 -2.392329 -16.960653 -15.204346 16.205967 -11.686563 -21.228739 7.540112 18.562851 
-0.170496 0.181966 0.975205 99.038469 -2.005878 92.262973 7.447890 2.725958 10.800279 -9.983585 -28.712037 33.970056 -10.877004 16.451371 9.046953 0.000000 -0.000000 0.000000 -1.664849 -2.890833 -23.674939 3.448180 -4.296532 36.560818 2.682124 -17.717779 -22.181290 0.000000 -0.000000 0.000000 5.411040 -6.424886 20.061344 -0.665424 -1.073016 -7.383896 0.024388 -3.514711 4.140993 -0.946864 -4.325525 1.671720 -0.697100 -4.114686 -1.028134 3.892795 5.928030 -12.397318 -8.699526 -1.084421 -13.239684 14.107368 -18.037263 -5.001001 1.953993 -2.823710 14.637316 -9.799944 -8.953776 -18.912146 3.881588 -1.993961 -17.015247 -15.159842 15.976128 -11.964264 -21.329673 7.553890 18.766456 
-0.156273 0.185726 0.973035 98.332939 -1.696334 92.457104 7.312357 2.675101 11.171096 -9.900939 -28.493027 34.423875 -10.773120 16.505385 9.610336 0.000000 -0.000000 0.000000 -1.446985 -2.603652 -23.147069 3.570826 -4.147574 37.039225 2.376818 -17.613481 -23.103397 0.000000 -0.000000 0.000000 5.631263 -6.150951 19.728854 0.406379 -0.892436 -7.430138 0.678629 -3.277016 3.686348 -1.681565 -3.550833 2.191481 -1.795132 -4.610883 -0.927168 4.414032 5.907984 -12.072001 -7.924156 -0.859425 -13.547020 13.961083 -18.128026 -5.196127 1.957128 -2.782748 14.616103 -8.486868 -8.370466 -18.733272 4.193321 -1.488952 -16.784364 -15.334653 15.989147 -12.111366 -21.586199 7.613208 18.790847 
